<?xml version="1.0" encoding="utf-8"?>
<!-- Generator: Adobe Illustrator 21.0.2, SVG Export Plug-In . SVG Version: 6.00 Build 0)  -->
<svg version="1.1" xmlns="http://www.w3.org/2000/svg" xmlns:xlink="http://www.w3.org/1999/xlink" x="0px" y="0px" width="228px"
	 height="80px" viewBox="0 0 228 80" style="enable-background:new 0 0 228 80;" xml:space="preserve">
<style type="text/css">
	.st0{fill:#FFFFFF;}
	.st1{fill:#EB0029;}
</style>
<g id="CLEAR_SPACE">
</g>
<g id="ARTWORK">
	<g>
		<g>
			<path class="st0" d="M228,39.9c0.1-15-3.1-23.3-6-27.5c1-1.3,1.6-2.1,1.6-2.1c0.3-0.3,0.8-0.7,1.8-0.9c0.3-2,1-4.3,1-4.3
				s-2,1.4-3.8,2.2c0.1,1-0.1,1.6-0.4,2c0,0.1-0.5,0.7-1.3,1.7c-1.2-1.5-2.7-2.8-4.8-4c-0.5-0.3-1.1-0.6-1.6-0.8
				c0-0.8-0.2-1.6-0.8-2.1c0-0.5-0.4-1-0.9-1.2l0,0c-0.5-0.1-1.2,0.1-1.6,0.4c-0.8,0.1-1.6,0.5-2.1,1.2c-1.7-0.4-3.7-0.6-6-0.8
				c-0.3-1.1-1-1.9-1.9-2.3c-0.2-0.5-0.9-1-1.5-1l0,0h0c0,0,0,0,0,0s0,0,0,0c-0.6,0-1.2,0.5-1.5,1c-0.9,0.4-1.6,1.2-1.9,2.3
				c-2.3,0.1-4.3,0.4-6,0.8c-0.6-0.6-1.3-1-2.1-1.2c-0.4-0.3-1.1-0.6-1.6-0.4l0,0c-0.5,0.2-0.9,0.8-0.9,1.2
				c-0.5,0.5-0.8,1.3-0.8,2.1c-0.6,0.3-1.1,0.5-1.6,0.8c-2.1,1.2-3.5,2.4-4.7,4c-0.7-0.9-1.1-1.5-1.1-1.5c-0.3-0.4-0.5-1-0.4-2
				c-1.8-0.8-3.8-2.2-3.8-2.2s0.7,2.3,1,4.3c1,0.1,1.5,0.6,1.8,0.9c0,0,0.6,0.7,1.4,1.9c-2.9,4.1-6.2,12.5-6.1,27.6
				c0,1.4-0.6,14.4,3.7,23.2c0.5,0.9,1.8,3.3,4.1,5.4c1.9,1.8,4.2,3.1,6.8,3.8c0.1,0,0.2,0.1,0.3,0.1c3.2,0.9,5.9,0.4,7.1-0.3
				l-0.2,0.4c0,0.1-0.1,0.3-0.1,0.4c-0.6,1.6-0.2,3.3,2,3.5c0.6,0.1,1.2,0.1,2,0.4c0.5,0.2,1.1,0.7,1.8,1.3c0.3,0.3,0.8,1,1.1,1.6
				l0,0l0,0v0c0.3-0.6,0.8-1.3,1.1-1.6c0.7-0.7,1.2-1.1,1.8-1.3c0.8-0.4,1.4-0.4,2-0.4c2.2-0.3,2.6-1.9,2-3.5c0-0.1-0.1-0.3-0.1-0.4
				c0-0.1-0.2-0.4-0.2-0.4c1.5,0.9,6.2,1.6,10.7-1.3c3.1-1.9,5.3-4.1,7.1-7.7C228.6,54.4,228,41.1,228,39.9z M208.2,27.8
				c-0.1,0.1-0.1,0.2-0.3,0.3c-0.2,0.1-0.5,0.2-0.7,0.2c-0.3,0-0.5-0.1-0.7-0.4c-0.5-0.7-0.8-1.4-1.4-2.7c-0.5-1.1-0.4-0.9-1.1-2.6
				c-0.3-0.8-0.9-2.1-1.2-2.5c-0.5-0.7-1.4-1.4-1.8-1.5c-0.4-0.2-1-0.3-1.6-0.3c-1.1-0.1-2.2,0.1-2.6,0.2c-0.4,0.1-1,0.3-1.3,0.7
				c0,0.1-0.2,0.2-0.4,0.3c-0.5,0.2-0.6,0.2-1.2,0.7c-1,0.7-0.8,1.8-0.3,2.3c0,0,0,0,0,0c0-0.3,0-0.5,0.1-0.5c0.1,0,0.5,0.3,1.3,0.2
				c0.5-0.1,0.9,0.8,0.9,0.8l0.1-0.2c0,0,0.2,0.5,0.3,0.6c0,0,0.1-0.1,0.1-0.1c0.2,0.2,0.4,0.3,0.5,0.7c0,0.3-0.1,0.6-0.5,0.9
				c-0.1,0.1-1,0.8-1.9,1.8c-0.5,0.5-0.7,0.8-1.2,1.3c-0.2,0.3-0.5,0.4-0.7,0.4c0,0-0.1,0-0.1,0c-0.3,0-0.5-0.2-0.6-0.3
				c-0.1-0.1-4.8-6.3-7-9.3c4.1-4,10.8-4.6,12.5-4.5c0.4,0,0.8,0.3,0.3,1c0.4,0.2,1.7,0,2.2-0.4c0.5,0.5,1.9,0.6,2.2,0.4
				c-0.5-0.6-0.1-1,0.3-1c1.7-0.1,8.1,0.2,12.5,4.6C212.7,21.9,209.8,25.5,208.2,27.8z"/>
			<g>
				<path class="st1" d="M227.1,35.8c-1.3,1-2.4,2-6.3,4.3l-1,0.6l0-0.7c0-0.1,0.3-10-4.5-18.5c-0.3,0.4-1.3,1.7-2.4,3
					c0.6-0.1,1.2,0.1,1.8,0.6c1,1,2.6,3.3,3.6,5.8c0.5,1.5,0.9,3.6,0.8,5.4l0,0c0,0-0.6,10.1-1.7,19.7c-1,8.8-1.6,9.9-1.6,9.9
					c-0.7-0.8-0.9-1.8-1.1-2.4l-0.1,0.1c0,0-0.6-0.9-1-2.6c-0.4-2-0.5-5.5-0.4-7.2l0,0c0,0,0-0.5-0.4-1.3c-0.2-0.4-0.3-0.8-0.4-1.2
					c0,0,0,0,0,0c-0.6-2.7-1.9-3.5-2.5-4.3c-0.8-1-1.4-2.1-1.8-2.9c0,0,0,0-0.1,0.1c-0.4,0.4-0.8,0.9-0.8,1.1
					c0.2,1.6,0.3,2.7,0.1,3.5c-0.1-0.1-0.2-0.2-0.3-0.3c0.1,1-0.4,2.2-0.1,3.2l-0.6-0.1c0,0.1,0,0.1,0.1,0.2
					c0.1,0.1,0.2,0.2,0.3,0.3c0,0,0.2,0.1,0.2,0.1c0.1,0,0.2,0.1,0.6,0.2c0.4-0.8,0.1-1.5-0.3-2c-0.3-0.4,0.1-0.9,0.7-0.6
					c0.8,0.3,1.6,0.8,2.5,1.7c1.3,1.2,1.7,2.4,1.4,2.6c-0.2,0.2-0.4,0.1-0.6,0.1c0,0,0,0.1,0,0.1c-0.1,0.2-0.3,0.4-0.6,0.5l0,0
					c-0.1,0.2-0.4,0.3-0.7,0.3c-0.3,0-0.7-0.2-0.8-0.2c-0.1,0-0.2-0.1-0.3-0.2c-0.1,0.1-0.2,0.1-0.2,0.2c1,1.4,3,3.6,4.4,6.1
					c1,1.8,1.5,3.3,1.5,3.3s-0.5,0.2-1.2,0c0.2,0.7,0.4,1.3,0.3,1.8c-0.5,0-1.2,0-2-0.5c0,0.1,0,0.2,0.1,0.3c0.6,0.4,1.3,1,1.6,1.2
					c-3.1,1.4-7.5,0.8-7.6,0.8c-0.2,0-0.4-0.1-0.6-0.1c0,0.1-0.1,0.2-0.1,0.3c0.3,0.7,1,2.4,1.1,2.7c1.9,0.9,3.7,1.5,6.5,1
					c0,0,0.5,0,1.7-0.4c1.2-0.4,3.5-1.7,5.2-3.4c2.2-2,3.5-4.2,3.9-5c3.4-6.6,3.9-16.4,3.9-20.4c0-1.3,0-2,0-2.1
					C227.2,38.9,227.1,36.8,227.1,35.8z"/>
				<path class="st1" d="M194.1,70.5c0.1-0.4,0.7-1.8,1.1-2.6c0-0.1-0.1-0.3-0.1-0.4c-0.4,0.1-0.8,0.1-1.3,0.2
					c-0.3,0-4.5,0.7-7.5-0.8c0.4-0.3,1.1-0.8,2-1.4c0-0.1,0-0.1,0-0.2c-0.7,0.4-1.4,0.5-2,0.5c0-0.5,0.1-1.1,0.3-1.8
					c-0.7,0.2-1.2,0-1.2,0s0.5-1.5,1.5-3.3c0.9-1.7,2.2-3.3,3.3-4.7c0.1-0.5,0.5-1,0.6-1.1c0,0,0.2-0.2,0.2-0.2
					c-0.1-0.1-0.2-0.2-0.4-0.3c-0.1,0.1-0.2,0.2-0.3,0.2c-0.4,0.2-0.6,0.2-0.8,0.2c-0.4,0-0.6-0.1-0.7-0.3l0,0
					c-0.3-0.1-0.5-0.2-0.6-0.5c0,0,0-0.1,0-0.1c-0.2,0.1-0.4,0.1-0.6-0.1c-0.3-0.2,0.1-1.4,1.4-2.6c0.9-0.9,1.7-1.3,2.5-1.7
					c0.6-0.3,1,0.3,0.7,0.6c-0.4,0.4-0.6,1.2-0.3,2c0.4-0.1,0.5-0.2,0.6-0.2c0.1-0.1,0.3-0.1,0.5-0.4c0,0,0-0.1,0.1-0.1l-0.5,0.1
					c0.3-0.7-0.1-2.3,0.1-3.4c-0.1,0.1-0.3,0.2-0.4,0.2c-0.2-1-0.2-2.5-0.1-3.3c0-0.2-0.3-0.5-0.7-0.9c-0.3,0.8-0.8,1.7-1.7,2.8
					c-0.7,0.8-1.9,1.6-2.5,4.3c0,0,0,0,0,0c-0.1,0.4-0.3,0.8-0.4,1.2c-0.4,0.9-0.4,1.3-0.4,1.3l0,0c0,1.7,0,5.2-0.4,7.2
					c-0.4,1.7-1,2.6-1,2.6l-0.1-0.1c-0.2,0.6-0.4,1.6-1.1,2.4c0,0-0.6-1.1-1.6-9.9c-1.2-9.6-1.7-19.7-1.7-19.7l0,0
					c-0.1-1.8,0.3-3.9,0.8-5.4c0.9-2.4,2.6-4.8,3.6-5.8c0.6-0.6,1.3-0.7,2-0.6c-0.2-0.3-0.4-0.5-0.4-0.5c-0.7-0.9-1.4-1.8-2.1-2.7
					c-4.7,8.3-4.6,18.2-4.6,18.3l0,1.1l-0.8-0.4c-3.7-2.1-5.3-3.4-6.5-4.4c-0.1,1-0.2,4.4-0.2,4.4c0,0.1,0,0.8,0,2.1
					c0,4,0.7,13.7,3.9,20.4c0.4,0.8,1.7,3.1,3.8,5.1c1.7,1.6,3.6,2.7,5.7,3.3c0.1,0,0.4,0.1,0.5,0.2C188.8,72,191.5,71.9,194.1,70.5
					L194.1,70.5z"/>
				<path class="st1" d="M196.1,73c0.1-1.2,0.2-2.9,0.5-4.4c-0.4,0.4-0.7,0.6-0.7,0.6c-0.1,0-0.1-0.1-0.2-0.2
					c-0.7,1.8-1.8,4.3-1.8,4.4C194.4,72.9,195.2,72.6,196.1,73z"/>
				<path class="st1" d="M203.3,74.1c0.1-1.2-0.4-4.5-0.7-6.4c0,0-0.1-0.1-0.1-0.2c-0.1-0.1-0.1-0.2-0.2-0.3
					c-0.1,0.4-0.2,0.8-0.4,1.2c-0.2,0.5-0.5,0.9-0.6,0.9c-0.1,0-0.9-0.6-1.5-1.9c-0.6,1.2-1.4,1.8-1.5,1.8c-0.1,0-0.4-0.5-0.6-0.9
					c-0.1-0.2-0.2-0.4-0.2-0.6c-0.3,2-0.7,5.1-0.7,6.3c-1.8-1.2-2.9,0-2.6,0.8c0,0.1,0.1,0.1,0.1,0.2c0.2,0.3,0.5,0.4,0.9,0.5
					c0.6,0,1.4,0.1,2.3,0.5c0.8,0.4,1.7,1,2.6,2.1c0.9-1.1,1.8-1.7,2.6-2.1c0.9-0.4,1.7-0.5,2.3-0.5c0.4,0,0.7-0.2,0.9-0.5
					c0-0.1,0.1-0.1,0.1-0.2C206.2,74.1,205.1,72.9,203.3,74.1z"/>
				<path class="st1" d="M203.9,69.1c0,0-0.3-0.1-0.6-0.4c0.3,1.4,0.5,3.1,0.5,4.3c1-0.4,1.7-0.1,2.2,0.3c0,0-1.1-2.9-1.8-4.6
					C204.1,68.9,204,69.1,203.9,69.1z"/>
			</g>
			<g>
				<path d="M197,32.5L197,32.5C197,32.5,197,32.5,197,32.5"/>
			</g>
			<g>
				<path d="M196,33L196,33C196,33,196,33,196,33"/>
			</g>
			<path d="M212.5,37.8c-0.1,0.7-0.4,0.9-0.9,1.3c-0.3-1-0.5-1.7,0.9-4.6c-0.9,2.8-0.5,3.7-0.5,3.7S212.3,38.1,212.5,37.8z
				 M211,35.9c0,0-0.3-0.6,0.5-3.1c-1.5,2.3-0.9,3.9-0.9,3.9s0.8-0.4,1-1.3C211.4,35.8,211,35.9,211,35.9z M216.5,31.7
				c-0.3,2.5-0.5,3-0.7,3.4c-0.2-0.1-0.4-0.7-0.4-0.7c-0.1,0.4,0,1.1,0.4,1.5C216.3,35.3,216.7,33.9,216.5,31.7z M216,30.1
				c-0.4,2.7-0.8,3.4-1.1,3.8c-0.2-0.2-0.4-0.8-0.4-0.8c-0.1,0.5,0,1.3,0.4,1.7C215.5,34.1,216.1,32.6,216,30.1z M214,32.7
				c-0.3-0.8-0.2-1.5-0.2-1.5c-0.4,1.1-0.3,2,0.1,2.4c0.6-0.7,1.6-2.7,1.4-4.6C214.9,31.3,214.3,32.3,214,32.7z M213,31.2
				c-0.2-0.8-0.1-1.9-0.1-1.9c-0.5,1-0.4,2.4-0.1,2.9c0.7-0.6,1.7-2.4,1.7-4.3C213.9,30.1,213.3,30.8,213,31.2z M216.3,35.8
				c0,0.6,0.5,0.9,0.5,0.9s0.8-1.1,0.5-3.1c-0.2,1.9-0.6,2.5-0.6,2.5S216.4,36,216.3,35.8z M217.3,36.7c0,0.5,0.4,0.8,0.4,0.8
				s0.7-1,0.3-2.8c-0.1,1.6-0.5,2.2-0.5,2.2S217.3,36.8,217.3,36.7z M183.7,35.2c-0.3-0.4-0.5-0.9-0.7-3.4c-0.2,2.2,0.2,3.6,0.7,4.2
				c0.4-0.4,0.5-1,0.4-1.5C184.1,34.5,184,35,183.7,35.2z M184.6,34c-0.3-0.5-0.7-1.1-1.1-3.8c-0.1,2.5,0.6,4,1.2,4.7
				c0.4-0.4,0.5-1.2,0.4-1.7C185.1,33.2,184.9,33.8,184.6,34z M185.6,32.8c-0.3-0.4-1-1.4-1.4-3.7c-0.1,1.9,0.8,4,1.4,4.6
				c0.4-0.4,0.5-1.3,0.1-2.4C185.8,31.3,185.8,32.1,185.6,32.8z M186.6,31.3c-0.4-0.4-1-1-1.6-3.3c0.1,1.9,1,3.7,1.7,4.3
				c0.3-0.5,0.4-1.9-0.1-2.9C186.6,29.3,186.7,30.5,186.6,31.3z M182.8,36.2c0,0-0.4-0.6-0.6-2.5c-0.3,2,0.5,3.1,0.5,3.1
				s0.5-0.4,0.5-0.9C183.2,36,182.8,36.2,182.8,36.2z M182,37c0,0-0.4-0.6-0.5-2.2c-0.3,1.7,0.3,2.8,0.3,2.8s0.5-0.3,0.4-0.8
				C182.2,36.9,182,37,182,37z M187.6,38.4c0,0-0.4-0.2-0.6-0.5c0.1,0.7,0.4,0.9,0.9,1.3c0.3-1,0.5-1.7-0.9-4.6
				C188,37.5,187.6,38.4,187.6,38.4z M188.5,36c0,0-0.4-0.1-0.7-0.4c0.2,0.9,1,1.3,1,1.3s0.7-1.6-0.9-3.9
				C188.9,35.3,188.5,36,188.5,36z M195.4,47.8c0.2-1.3-0.5-2.4-0.6-2.9c-0.1,0.2-0.1,0.6-0.1,0.6c-0.5-0.5-0.6-1.3-0.7-1.6
				c-0.1,0.9-0.4,1.3-0.5,1.7c0.2,0,0.4-0.1,0.6-0.2C194.2,46.4,195.1,46.7,195.4,47.8z M204.6,45.6c0,0,0-0.4-0.1-0.6
				c-0.1,0.5-0.8,1.6-0.6,2.9c0.3-1.1,1.2-1.4,1.4-2.4c0.2,0.1,0.4,0.2,0.6,0.2c-0.1-0.4-0.4-0.8-0.5-1.7
				C205.2,44.2,205.1,45.1,204.6,45.6z M197.8,44.3c-0.1-0.4-0.4-1.9-0.9-2.5C196.7,42.9,197.4,43.9,197.8,44.3z M201.3,45.7
				c0.2-0.6,0.8-1.2,0.7-3C201.5,43.2,201.2,45,201.3,45.7z M200.2,46.4c0.3-0.8,0.3-1.7-0.1-2.1C199.9,45.1,199.9,45.8,200.2,46.4z
				 M199.3,44.2c0.3-0.9,0.2-1.9-0.2-2.4C198.9,42.7,198.9,43.5,199.3,44.2z M205.4,36.4c-0.5,0.7-0.7,2.3-0.8,2.8
				C204.7,39.1,205.7,36.8,205.4,36.4z M205.4,33.9c0,0,0.9-1.5,0.4-2.4C205.2,31.6,205.4,33.9,205.4,33.9z M202.9,37.6
				c0,0,1.4-1.3,1.3-2.9c-0.4,1.1-1.3,1.6-1.3,1.6c0,0-0.5-0.3-0.7-1C202,36.8,202.9,37.6,202.9,37.6z M205.6,35.7
				c0.4-0.6,0.9-1.4,0.5-1.9C205.8,34.3,205.7,34.9,205.6,35.7z M201.4,42.1c0.2-0.5,0.8-1.6,0.7-2.7
				C201.5,39.8,201.3,41.4,201.4,42.1z M203.3,40.4c0.8-1,1.2-2.1,0.9-3.3C203.5,38.2,203.5,39.3,203.3,40.4z M201.6,36.9
				c-0.2,0.8-0.6,1.3-1.2,1.9c-0.2-0.2-0.5-0.5-0.8-1.2c-0.1,1.3,0.6,2.1,1,2.4C200.9,39.7,201.8,38.5,201.6,36.9z M198,40.2
				c-0.2,0-1-0.8-1.2-1.3c0.1,0.7,1.1,2.2,1.6,2.5c0.2-0.3,0.8-1.4,0.2-3.3C198.5,39.3,198.3,39.9,198,40.2z M193.3,31.2
				c-0.1-0.7,0.7-1.3,0.4-2.3C192.9,29.9,193.1,30.7,193.3,31.2z M194.9,39c0.5,0.8,0.8,1.1,1.2,1.5c-0.6-0.9-1-2.4-1.6-2.9
				C194.5,37.8,194.7,38.5,194.9,39z M194.5,35.4c-0.3,1.3,1,2.6,1,2.6C195.6,38.1,195.6,36.5,194.5,35.4z M195.5,32.9
				c0,0.6,0,1.1-0.1,1.7c-0.4-0.1-0.6-0.3-0.8-0.6c0.2,0.8,1.2,1.6,1.3,1.8C195.9,34.9,196,33.6,195.5,32.9z M194.9,29.5
				c0.4-1.3,1.1-2.1,1.4-2.9C194.9,27.6,194.7,29.1,194.9,29.5z M193.8,35.3c-0.2-1.1-0.1-1.9-0.7-2.9
				C192.9,33.7,193.6,35.2,193.8,35.3z M197.1,31c-0.9,1.1,0.5,2.5,0.5,2.5C197.5,33.5,197.7,31.4,197.1,31z M197.7,27.9
				c-1.3,1-0.7,1.9-0.5,2.4C197.5,29.4,197.6,29.1,197.7,27.9z M198.5,36.9c0.2-0.5,0.9-1.4,0.5-3c-0.1,1.2-0.9,1.7-0.9,1.7
				c0,0-0.4-0.2-0.8-1C197.5,36,198.1,36.5,198.5,36.9z M205.3,28.1c-0.1,0.7,0.8,2.4,0.8,2.6C206.1,30.5,206.6,29.1,205.3,28.1z
				 M203.5,25.1c-0.1,0.6,0.9,1.6,0.9,1.6C204.4,26.7,204.5,25.5,203.5,25.1z M205,30c-0.3,1.4-0.9,1.9-0.9,1.9c0,0-0.5-0.4-0.9-0.9
				c0,1.1,0.9,2.2,0.9,2.2C204.1,33.2,205.3,32.3,205,30z M202.1,27.4c-0.5,0.6,0,1.7,0.3,2.8C202.7,29.6,203,27.9,202.1,27.4z
				 M202.6,25.7c0-0.5-0.2-1.4-1.3-1.6C201.2,24.8,202.2,25.1,202.6,25.7z M201.3,23.6c0.3,0.3,1.1,0.5,1.6,0.9
				C202.8,23.8,202.1,23.3,201.3,23.6z M200.2,26.9c-0.8,0.9-0.3,1.6-0.3,1.6C199.9,28.5,200.9,27.4,200.2,26.9z M201.4,35.2
				c0,0,1-1,1.1-2.9c-0.6,1-1.2,1.5-1.2,1.5c0,0-0.5-0.4-1-0.9C200.3,34.2,201.4,35.3,201.4,35.2z M199.9,29.9c-0.9,1.4,0,2.8,0,2.8
				C199.9,32.6,200.5,30.7,199.9,29.9z M200.2,20.2c0.2,0.2,1,0.6,1.5,1C201.6,20.5,201,20.1,200.2,20.2z M200.6,21
				c-0.5-0.5-1.1-0.7-1.4-0.8C199.6,20.6,200,21,200.6,21z M202.2,22.3c0-0.1-0.4-0.7-1.2-0.8c0.2,0.2,0.3,0.6,0.4,0.7
				c-0.2,0.1-0.6,0.1-0.7,0.1C201,22.6,201.6,22.6,202.2,22.3z M195.1,20.4c-0.1,0-0.1,0.3,0.1,0.3c0.2,0,0.3-0.2,0.3-0.2
				S195.2,20.3,195.1,20.4z M202,6.8c-0.3-0.2-0.4-0.3-0.7-0.5c-0.2,0.2-0.5,0.4-0.7,0.5c0.2,0.2,0.4,0.3,0.7,0.5
				C201.6,7.1,201.7,7,202,6.8z M197.8,19.8c0,0,0.1,0.2,0.1,0.4c0,0.3-0.2,0.5-0.6,0.6c-0.4,0.1-0.9-0.2-0.9-0.6
				c0-0.1,0-0.3,0.1-0.4c-0.1,0-0.2,0.1-0.3,0.3c-0.1,0.1-0.2,0.1-0.4,0.2c0-0.3,0.3-0.7,0.6-0.8c0.5-0.2,2.1-0.3,3.3,0.3
				c-0.4-0.1-0.8,0-1.2-0.1C198,19.8,197.8,19.8,197.8,19.8z M197.6,19.8c-0.1,0-0.4,0-0.5,0.1c0,0.1,0.2,0.2,0.3,0.2
				c0.1,0,0.1,0,0.2-0.1C197.6,19.9,197.6,19.8,197.6,19.8z M203.1,10.1c-3.3-0.2-9.6,0.2-12.7,1c0,0-0.3-0.8-0.6-1.1
				c-0.8-0.9-1.2,0.1-1.2,0.2c1,0.1,1.2,0.6,1.2,0.6c-0.2,0.5-0.4,0.6-1,1c-0.2,0.1-0.9,0.5-1.8,0.6c-2,0.1-1.4-2-0.2-2.8
				c-0.2,0.2-0.9,1.3-0.4,1.8c0.5,0.6,2.3,0.1,2.7-0.4c-0.2-0.2-0.7-0.3-1.3-0.2c0-0.3,0.2-1.2,1.1-2c0.3,0.1,1.3,0.6,1.6,1.4
				c2.9-0.8,8.1-1,8.4-1c-0.1-0.5-0.2-2.4-0.2-2.5c0-0.3,0.2-0.4,0.4-0.6c0.2,0.4,0.4,0.6,0.9,0.7c-0.2,0.2-0.4,0.3-0.6,0.5
				c0,0.4,0.1,1.1,0.1,1.3c0.5-0.2,1.1-0.5,1.9-0.7C201.6,8,202,8,202.2,8c0.3,0,0.6,0.2,0.8,0.3c0.1,0.1,0.3,0.3,0.3,0.6
				C203.3,9.4,203.2,9.8,203.1,10.1z M202.4,8.9c-0.4-0.7-1.9-0.1-2.9,0.3c0.6,0,1,0,1.6,0c0.2,0,0.9,0,1.3,0
				C202.5,9.1,202.5,9,202.4,8.9z M188.8,12.4c-0.2-0.1-0.4-0.1-0.6-0.2c-0.2,0.2-0.3,0.5-0.4,0.7c0.3,0.1,0.5,0.2,0.8,0.3
				c0.1-0.2,0.2-0.3,0.3-0.5c0.2,0.1,0.4,0.1,0.6,0.2c0.2-0.3,0.2-0.4,0.4-0.7c-0.3-0.1-0.5-0.2-0.8-0.3
				C189,12.1,188.9,12.2,188.8,12.4z M212.9,10c0.6-0.1,1.2,0.1,1.5-0.2c-0.4-0.1-0.8-0.2-0.9-0.4c0.2-0.1,0.4,0.1,0.5,0.2
				c0.1-0.1,0.1-0.1,0.2-0.2c-0.4-0.3-1.1-0.1-1.2,0.2c0.1,0.1,0.3,0.1,0.4,0.2C213.2,9.8,213,9.9,212.9,10z M212.5,11.2
				c-0.3,0.6-0.5,1.2-0.8,1.8c0.2,0.1,0.4-0.1,0.6-0.2c0.8-0.5,1.4-1.8,1.7-2.6c0,0-0.5,0.1-0.7,0.2
				C212.8,10.5,212.7,10.7,212.5,11.2z M206.5,11.5c0.2,0.2,0.3,0.4,0.6,0.6c0.3-0.2,0.4-0.2,0.8-0.4c-0.2-0.2-0.4-0.4-0.6-0.6
				C207,11.2,206.7,11.3,206.5,11.5z M211.9,10.8c-0.1,0.4-0.5,0.7-0.7,1c-1.1-0.4-3.6-1.1-4.9-1.2c-0.4,0.4-0.9,0.9-1.5,1.1
				c-0.8-0.1-1.4-0.3-2-0.6c0.3,0,0.4,0,0.7,0c0.8,0,1.6-0.3,2.1-0.6c-1.2-0.2-1.5-0.5-0.9-1.3c0.3-0.3,0.7-1,1.3-0.8
				c0.5,0.1,0.6,0.8,0.6,1.3c1.4,0.2,3.1,0.6,4.5,1.1c0.1-0.4-0.2-0.6-0.3-0.9c0.2-0.2,0.5-0.5,0.7-0.6
				C211.8,9.6,212,10.4,211.9,10.8z M205.4,9.1c0,0-0.2,0.1-0.3,0.4c0.1,0.2,0.3,0.2,0.6,0.3c0,0,0.1,0,0.2,0
				C206,9.4,205.7,9,205.4,9.1z M190.7,11.9c0.3,0.1,0.5,0.2,0.8,0.3c0.2-0.2,0.3-0.4,0.5-0.6c-0.3-0.1-0.5-0.2-0.8-0.3
				C191,11.4,190.8,11.7,190.7,11.9z M224.3,63.2c-1.8,3.5-4,5.7-7.1,7.7c-4.5,2.8-9.1,2.2-10.7,1.3c0,0,0.1,0.3,0.2,0.4
				c0,0.1,0.1,0.3,0.1,0.4c0.6,1.6,0.2,3.3-2,3.5c-0.6,0.1-1.2,0.1-2,0.4c-0.5,0.2-1.1,0.7-1.8,1.3c-0.3,0.3-0.8,1-1.1,1.6v0l0,0
				l0,0c-0.3-0.6-0.8-1.3-1.1-1.6c-0.6-0.7-1.2-1.1-1.8-1.3c-0.8-0.4-1.4-0.4-2-0.4c-2.2-0.3-2.6-1.9-2-3.5c0-0.1,0.1-0.3,0.1-0.4
				l0.2-0.4c-1.1,0.6-3.9,1.1-7.1,0.3c-0.1,0-0.2-0.1-0.3-0.1c-2.6-0.7-4.9-2-6.8-3.8c-2.3-2.2-3.6-4.5-4.1-5.4
				c-4.3-8.8-3.7-21.8-3.7-23.2c-0.1-15.1,3.2-23.5,6.1-27.6c-0.9-1.1-1.4-1.8-1.4-1.9c-0.3-0.3-0.8-0.7-1.8-0.9c-0.3-2-1-4.3-1-4.3
				s2,1.4,3.8,2.2c-0.1,1,0.1,1.6,0.4,2c0,0.1,0.4,0.6,1.1,1.5c1.3-1.6,2.6-2.7,4.7-4c0.5-0.3,1.1-0.6,1.6-0.8
				c0-0.8,0.2-1.6,0.8-2.1c0-0.5,0.4-1,0.9-1.2l0,0c0.5-0.1,1.2,0.1,1.6,0.4c0.8,0.1,1.6,0.5,2.1,1.2c1.7-0.4,3.7-0.6,6-0.8
				c0.3-1.1,1-1.9,1.9-2.3c0.2-0.5,0.9-1,1.5-1c0,0,0,0,0,0s0,0,0,0h0c0.6,0,1.2,0.5,1.5,1c0.9,0.4,1.6,1.2,1.9,2.3
				c2.3,0.1,4.3,0.4,6,0.8c0.6-0.6,1.3-1,2.1-1.2c0.4-0.3,1.1-0.6,1.6-0.4l0,0c0.5,0.2,0.9,0.8,0.9,1.2c0.5,0.5,0.8,1.3,0.8,2.1
				c0.6,0.3,1.1,0.5,1.6,0.8c2.1,1.2,3.6,2.6,4.8,4c0.8-1,1.2-1.6,1.3-1.7c0.3-0.4,0.5-1,0.4-2c1.8-0.8,3.8-2.2,3.8-2.2
				s-0.7,2.3-1,4.3c-1,0.1-1.5,0.6-1.8,0.9c0,0-0.6,0.8-1.6,2.1c2.8,4.1,6.1,12.5,6,27.5C228,41.1,228.6,54.4,224.3,63.2z M223,15.9
				c-1.8,0.4-2.9,0.4-3.6,0.3c-0.5,1-0.8,1.9-0.8,3.6c-0.7-0.2-1.1-0.4-1.5-0.8c-0.5,0.7-0.8,1.1-1.3,1.8c4.7,8.4,4.7,16.2,4.8,18.4
				c3.7-2.1,6-4.1,6.5-4.5C226.6,26.9,225.3,21,223,15.9z M215.5,39.4c-0.1,0.9-0.1,1.7,0.1,2.5c0.4-0.6,0.7-1.1,1-2.1
				c0,0.8,0.2,1.7,0.4,2c0.6-0.8,0.9-4.1,0.9-4.1s0,0.1,0.3,0.2c0.3-1.2,0.1-3.6-0.1-4.7c-0.4-2-1.2-4.4-3.7-7.3
				c-1.3-1.5-2.3-0.8-3.4,0.3c-1.7,1.9-2.1,2.7-4.1,3.1c0,0,0,0,0,0c-0.2,0-0.1,0.1,0.4,0.1c2.5,0,3.3-1.7,4-2.5
				c0.5-0.5,1.1-1,1.7-0.7c0.2,0.1,0.9,0.9,0.2,2.8c0-0.4-0.2-0.8-0.3-0.9c-0.3,1.3-0.8,2.3-1.3,3.2c-0.1-0.2-0.1-0.4-0.2-0.7
				c-0.2,1.6-1.7,3.2-1.9,5.4c-0.1-0.2-0.3-0.4-0.3-1c-1.1,2-2.2,5.5-1.5,7.2c0-1.8,1.1-4.4,1.6-5.2c-0.7,2.3-1.6,5.1-0.8,6.9
				c0.1-1.5,0.9-3.9,1.5-4.9c-1,3.8-1.4,5.7-0.3,7.2c-0.2-1.4,0.4-3.6,1.2-5.3c-0.5,3-1.3,5.5,0.1,6.8c-0.2-1.9,0.5-4.5,0.9-5.4
				c-0.5,2.8-0.8,5.6,0.1,7c0-1,0.2-2,0.4-3c0.2-1.2,0.6-2.4,0.6-2.4s-0.3,2-0.4,4.4c0,0.4,0,0.8,0,1.2c0,0.5,0,1,0.1,1.5
				c0.1,0.4,0.2,0.9,0.4,1.2c0.3-3.2,0.6-6,1.1-7.3c0,0-0.4,3-0.6,7.6c0,0.2,0,0.3,0,0.5c-0.3,6.6,0.6,8.7,0.9,9.4
				c0,0-0.1-0.1-0.1-1c0-0.7,0-0.7,0.1-1.5c0-0.2-0.6-1.5-0.5-3.1c0.1-1,0.1-2,0.2-2.9c0.1-0.9,0.2-1.7,0.2-2.5
				c0.1-0.7,0.2-1.5,0.3-2.2c0.1-1.1,0.4-2.1,0.5-3.2c0.2-0.8,0.1-0.1,0.1,0.1c-0.1,1-0.3,3-0.4,5.2c-0.1,1.6-0.5,4.8-0.4,6.3
				c0.1,1.3,0.4,1.9,0.4,2.1c-0.1,2.6,0.2,3.6,0.6,4.6c0,0,0.3-0.9,0.5-2.1c0,0.1-0.1,0.2-0.3,0.2c-0.3-0.8-0.5-2.3-0.3-3.8
				c0-0.3-0.4-0.6-0.3-1.8c0-1.9,0.3-3.8,0.5-5.7c0.1-0.6,0.2-1.2,0.3-1.8c0.1-0.4,0.1-0.7,0.2-1.1c0.1-0.6,0.2-1.2,0.3-1.8
				c0-0.1,0-0.2,0.1-0.3c0,0,0,0.4-0.1,1c-0.2,2.5-0.8,9.1-0.8,9.6c0,1.3,0.3,1.7,0.3,1.9c-0.1,0.9-0.1,2.6,0.1,3
				c0.1-0.4,0.2-1.1,0.2-1.1s0.4-2.6,0.8-6.4c0.1-0.6,0.1-1.2,0.2-1.7c0.1-0.5,0.1-1.1,0.2-1.7c0.1-0.7,0.1-1.3,0.2-2
				c0-0.3,0.1-0.6,0.1-0.9c0.2-1.8,0.3-3.8,0.5-5.5c0,0,0.2-2.9,0.3-3.7c-0.1-0.1-0.1-0.1-0.1-0.1s-0.3,3.5-1.3,4.8
				c-0.3-0.2-0.6-1.6-0.5-2c-0.2,0.7-1.1,1.6-1.1,1.6s-0.3-0.7-0.3-1.9c-0.3,0.4-0.5,0.7-1,1c-0.2-0.4-0.4-0.9-0.4-2
				c-0.2,0.2-0.4,0.5-0.8,0.7c-0.1-0.3-0.7-1.3,0.4-5c-0.5,3.4-0.2,3.8-0.1,4.1c0.2-0.1,0.4-0.2,0.5-0.3c0-0.6,0.2-1.4,0.4-2.4
				c-0.2,2.7,0,3.6,0.3,4.1C214.6,41.1,215,40.6,215.5,39.4z M207.1,40.5c0.3-3.5,0.9-5.6,1.4-7.4C206.6,35.1,206.9,39.8,207.1,40.5
				z M207.5,32.9c0.6-1.8,0.1-2.7-0.2-2.8C207.2,30.9,207.4,31.2,207.5,32.9z M209,34.4c0.5-1.6,0.7-2.6,0.7-3.9
				C209.3,30.9,208.9,32.6,209,34.4z M210.6,30.9c0.1-0.6,0.2-1.3,0.1-2c-0.3,0.6-0.6,1.9-0.5,3.1C210.3,31.7,210.5,31.3,210.6,30.9
				z M206.3,44.1C206.3,44.1,206.3,44.1,206.3,44.1c0-0.1,0-0.1,0-0.1c0,0,0,0,0,0c0.1,0,0.1,0,0.2,0.1c0.1,0,0.1,0.1,0.2,0.1
				c-0.1-0.3-0.2-0.8-0.2-1.3c0-0.5-0.1-1.1-0.2-1.6c0,0,0-0.1,0-0.1c-0.1,0.3-0.3,0.5-0.5,0.7c-0.3,0.4-0.5,0.7-0.6,1.2l0,0.1
				l-0.1-0.1c0.1,0.1-0.4-0.5-0.4-0.5c-0.2,0.8-1.5,2.4-1.8,2.8v0c0,0.1-0.5,0.8-0.7,2.7c-0.2,1.8,0,2.8,0,2.8l0.5-0.5
				c0,0,0,0.5,0,1.1c0,0.4-0.2,0.8-0.2,0.8s0.9,0.2,1.6-0.7l0.1,0.3c0.1,0.3,0.2,0.7-0.1,0.9c0,0-0.5,0.4-0.4,0.8
				c0,0.1,0.1,0.3,0.3,0.4l0,0l0,0c0,0.2,0.2,0.3,0.3,0.4c0-0.2,0-0.3,0-0.4c0.1-0.3,0.3-0.3,0.4-0.3c0.1,0,0.2,0,0.2,0
				s0.1,1.1,0.2,1.5c0.1,0.4,0.2,0.9,0.2,1.4c0,0.1,0,0.2,0,0.4c0,0.4,0.3,0.4,0.4,0.4c0.1,0,0.3,0,0.5,0l0,0l0,0
				c-0.3,0.1-0.3,0.2-0.3,0.2c0,0.2,0.1,0.4,0,0.7l0,0c0.4-0.2,0.4-0.6,0.4-1l0,0l0,0c0.3-0.2,0.2-0.8-0.2-1.8
				c-0.2-0.5-0.3-1.2-0.2-1.3c0,0,0,0,0,0c0.1,0,0.2,0,0.4,0.3c0.1,0.2,0.3,0.4,0.5,0.6c0.2,0.2,0.3,0.4,0.3,0.6
				c0,0.1,0,0.1-0.1,0.1c0,0-0.1,0-0.1,0c-0.1,0-0.2,0-0.3,0c0.1,0.1,0.5,0.6,0.6,0.4c0.3-0.3,0,0.2,0.5,0.3c0.3,0,0.6-0.2,0.6-0.6
				c0-0.1,0-0.2,0-0.4c-0.1-0.4-0.4-0.8-0.5-0.9L208,55c-0.9-0.9-0.8-1.1-0.7-1.2c0.1-0.1,0.2-0.2,0.4-0.2c0.3,0,0.7,0,0.7,0
				c0.3,0.1,0.9,0.2,0.9,0.3c0,0,0,0.1-0.1,0.1c-0.1,0.1-0.3,0.1-0.3,0.1c0,0.1,0.2,0.1,0.3,0.2c0.1,0.1,0.7,0.2,0.9,0l0.1-0.1
				c0.1,0,0.4,0,0.4-0.2c0.1-0.2-0.2-0.4-0.4-0.6c-0.2-0.1-0.8-0.3-1.3-0.5c-0.2-0.1-0.4-0.1-0.6-0.2l-1-0.3c0,0-0.6-0.2-0.8-0.3
				c-0.1,0-0.2-0.1-0.2-0.1c-0.2-0.1-0.3-0.2-0.4-0.4c-0.1-0.2-0.2-0.6-0.3-1c0.1,0.1,0.4,0.3,0.8,0.3c0-0.2-0.1-0.7,0-0.9
				c0.2-1.7,0.2-2.7,0.2-2.7s0.3,0.3,0.3,0.4c0.1-0.3,0-1-0.1-1.7c0,0,0,0,0,0C206.6,45.6,206.5,44.8,206.3,44.1z M207.6,52.2
				l0.8,0.2c0.1,0,0.2,0.1,0.4,0.1c0.1-0.4,0.2-0.8,0.2-1.2c0-0.4,1,0.5,1.7,1.2c0.3,0.3,0.3,0.2,0.2-0.1c-0.7-0.9-2-1.8-2.4-2
				c-0.6-0.4-1-0.3-0.7,0.1C207.9,50.9,207.8,51.5,207.6,52.2z M208.7,58.8c0.8,0.9,2,2.7,2.4,3.2c1,1,1.4,1.2,2.2,1.2
				c-0.2-0.7-0.5-1.4-1.7-3.2c-0.6-1-1.6-2.5-2.7-3.7c0,0.2,0,0.4-0.1,0.5c0,0,0,0.1-0.1,0.1c-0.1,0.1-0.2,0.2-0.3,0.3
				c-0.2,0.1-0.4,0.2-0.6,0.2c-0.2,0-0.4-0.1-0.5-0.2c-0.1,0-0.2,0-0.4-0.1c0,0.4,0,0.6-0.2,0.8c0,0.2,0,0.7-0.4,1
				c0,0.1,0.1,0.1,0.1,0.1c0.2,0.4,0.1,0.7,0,0.8c-0.1,0.1-1.3,1.5-1.6,1.7c-0.3,0.3-0.7,0-0.7,0l-0.2-0.2c0,0-0.3,0.3-0.6,0.6
				c0,0,0,0,0.1,0.1c0,0,0,0,0,0c0.4,0.4,0.9,0.6,1.3,0.8c0.4,0.2,1.7,0.7,2.6,1c-0.2-0.6-0.4-1.4-0.7-2.1c0.2,0.3,0.8,1.4,1.4,2.4
				c0,0,0.1,0,0,0c0.7,0.3,1.6,0.8,2.3,1.2c-0.1-0.2-0.1-0.4-0.1-0.4s-0.6-0.7-1.1-1.3c-0.9-1.3-1.4-2.6-1.7-3.4
				c1,1.5,1.2,1.9,1.6,2.4c1.2,1.7,2.6,2.4,3.1,2.4c-0.2-0.9-0.5-1.1-0.5-1.1s-0.6-0.5-1.3-1.4c0.2,0.2,0.3,0.4,0,0
				c-0.3-0.3-0.2-0.2,0,0C210.1,61.5,209.4,60.4,208.7,58.8z M205.3,67.1c1.7,0.2,5.3,0.2,6.6-0.3c-0.5-0.4-2.6-1.7-5.7-3
				c-0.7-0.3-1.5-0.6-2.1-1c-0.4-0.3-0.6-0.4-0.9-0.8c-1-1-3.8-3.8-4.3-4.3l-1.8,1.7c0,0,4.8,4.7,6,5.4c1.6,0.8,6,1.8,6,1.8
				s-3.4-0.3-6-1.3c-1.6-0.6-6.5-5.5-6.5-5.5l-1.2,1.1c0.6,0.7,1.9,2.2,4.1,3.9C201.1,66,202.9,66.8,205.3,67.1z M200.1,66
				c0,0.9,0.8,1.9,0.9,2c0,0,0.3-0.3,0.4-1.3C200.8,66.5,200.4,66.2,200.1,66z M191.9,60c-0.3,0.9-0.8,2.2-1.7,3.4
				c-0.4,0.6-1.1,1.3-1.1,1.3s0,0.1-0.1,0.3l-0.1,0.1l0.7-0.4c0.1-0.1,0.2-0.1,0.4-0.2c0.5-0.3,1-0.5,1.5-0.7c0.5-0.9,1.1-2,1.3-2.3
				c-0.1,0.2-0.2,0.8-0.7,2.1l0.4-0.2c0.8-0.3,1.5-0.6,1.9-0.7c0.6-0.3,0.8-0.5,1.1-0.6c0,0,0.1-0.1,0.2-0.2c0,0-0.6-0.6-0.6-0.6
				l-0.2,0.2c0,0-0.3,0.3-0.7,0c-0.3-0.2-1.5-1.6-1.6-1.7c-0.1-0.1-0.3-0.4,0-0.8c0,0,0,0,0,0c-0.4-0.3-0.4-0.8-0.4-1
				c-0.2-0.2-0.2-0.5-0.2-0.8c-0.1,0.1-0.2,0.1-0.4,0.1c-0.1,0.1-0.3,0.2-0.5,0.2c0,0-0.1,0-0.1,0c-0.2,0-0.4-0.1-0.5-0.2
				c-0.2-0.1-0.2-0.1-0.3-0.4c0,0,0,0,0-0.1c-0.7,0.7-1.3,1.7-2.3,3.1c-1.2,1.8-1.4,2.5-1.7,3.2c0.8,0,1.2-0.2,2.2-1.2
				c0.5-0.5,1.7-2.3,2.4-3.2c-0.6,1.6-1.3,2.8-1.9,3.6c-0.7,0.9-1.4,1.5-1.4,1.5s-0.3,0.2-0.5,1.1c0.5,0,1.8-0.7,3.1-2.4
				C190.6,61.9,190.9,61.5,191.9,60z M191.2,55c-0.4,0.4-0.7,0.8-0.7,1.4c0,0.4,0.3,0.6,0.6,0.6c0.5-0.1,0.2-0.6,0.5-0.3
				c0.1,0.1,0.5-0.3,0.6-0.4c-0.2,0-0.5,0.1-0.5-0.3c0-0.2,0.2-0.4,0.4-0.6c0.1-0.2,0.6-1,0.8-0.9c0.1,0.1,0.1,0.8-0.2,1.3
				c-0.5,1-0.5,1.6-0.2,1.8l0,0l0,0c0,0.3,0,0.7,0.4,1l0,0c-0.1-0.3,0-0.5,0-0.7c0,0,0-0.1-0.3-0.2l0,0l0,0c0.1,0,0.4,0,0.5,0
				c0.2,0,0.4-0.1,0.4-0.4c0-0.1,0-0.2,0-0.4c0.1-0.6,0.2-1.1,0.2-1.4c0.1-0.4,0.2-1.5,0.2-1.5s0.1,0,0.2,0c0.1,0,0.3,0.1,0.4,0.3
				c0,0.1,0,0.2,0,0.4c0.1-0.1,0.3-0.2,0.3-0.4l0,0l0,0c0.2-0.1,0.2-0.2,0.3-0.4c0.1-0.4-0.4-0.8-0.4-0.8c-0.3-0.2-0.2-0.6-0.1-0.9
				l0.2-0.4c0.1,0.2,0.3,0.3,0.5,0.4c0.6,0.4,1.2,0.3,1.2,0.3s-0.1-0.3-0.2-0.8c-0.1-0.6,0-1.1,0-1.1l0.5,0.5c0,0,0.3-0.9,0.1-2.7
				c-0.2-2-0.6-2.8-0.7-3.1c-0.1-0.5-0.4-0.9-0.4-0.9s0,0.2-0.4,0.5c-0.4-0.5-1.1-1.5-1.3-2.1c-0.1,0.2-0.3,0.4-0.4,0.5l-0.1,0.1
				l0-0.1c-0.1-0.5-0.4-0.9-0.6-1.2c-0.2-0.2-0.4-0.5-0.5-0.7c-0.2,0.5-0.2,1.1-0.2,1.6c0,0.5-0.1,1-0.2,1.3
				c0.1-0.1,0.2-0.1,0.2-0.1c0.1-0.1,0.2-0.1,0.2-0.1l0,0l0,0c0,0,0,0.1,0,0.1c-0.2,0.7-0.3,1.5-0.3,2c-0.1,0.7,0,1.3,0.1,1.6
				c0-0.1,0.5-0.3,0.5-0.3s-0.3,1-0.2,2.7c0,0.3,0,0.8,0,0.9c0.3,0,0.6-0.2,0.7-0.3c-0.1,0.4-0.2,0.9-0.3,1c-0.4,0.6-1.3,0.7-2,0.9
				c-0.8,0.2-1.6,0.4-2.4,0.8c-0.2,0.1-0.5,0.4-0.4,0.6c0.1,0.2,0.3,0.2,0.4,0.2l0.1,0.1c0.2,0.3,0.8,0.1,0.9,0
				c0.2-0.1,0.3-0.2,0.3-0.2c0,0-0.2,0-0.3-0.1c0,0-0.1-0.1-0.1-0.1c0-0.3,1.4-0.4,1.6-0.4c0.2,0,0.3,0,0.4,0.2
				C192,53.9,192,54.1,191.2,55z M191.6,50.5c0.2-0.4-0.1-0.4-0.7-0.1c-0.4,0.2-1.7,1.1-2.4,2c-0.2,0.2-0.1,0.3,0.2,0.1
				c0.7-0.7,1.7-1.6,1.7-1.2c0,0.4,0.1,0.8,0.2,1.2c0.1,0,0.2,0,0.3-0.1l0.9-0.2C191.4,51.5,191.4,50.9,191.6,50.5z M190.2,37.1
				c0.6,0.8,1.7,3.4,1.6,5.2c0.7-1.8-0.4-5.3-1.5-7.2c0,0.6-0.1,0.7-0.3,1c-0.2-2.2-1.6-3.9-1.9-5.4c0,0.3-0.1,0.5-0.2,0.7
				c-0.5-0.9-0.9-1.9-1.3-3.2c-0.1,0.1-0.3,0.5-0.3,0.9c-0.7-1.9,0-2.7,0.2-2.8c0.5-0.3,1.2,0.2,1.7,0.7c0.7,0.8,1.5,2.5,4,2.5
				c0.4,0,0.6-0.1,0.4-0.1c0,0,0,0,0,0c-2.1-0.4-2.4-1.2-4.1-3.1c-1.1-1.2-2.1-1.8-3.4-0.3c-2.5,2.9-3.2,5.3-3.7,7.3
				c-0.2,1.1-0.4,3.6-0.1,4.7c0.3-0.1,0.3-0.2,0.3-0.2s0.3,3.3,0.9,4.1c0.2-0.3,0.4-1.2,0.4-2c0.3,1,0.6,1.5,1,2.1
				c0.2-0.8,0.2-1.6,0.1-2.5c0.5,1.2,0.9,1.7,1.1,1.9c0.2-0.5,0.4-1.4,0.3-4.1c0.2,1,0.3,1.8,0.4,2.4c0.1,0.1,0.3,0.3,0.5,0.3
				c0.1-0.3,0.4-0.7-0.1-4.1c1.1,3.7,0.5,4.7,0.4,5c-0.4-0.2-0.6-0.5-0.8-0.7c0,1.1-0.2,1.6-0.4,2c-0.4-0.2-0.7-0.6-1-1
				c0,1.2-0.3,1.9-0.3,1.9s-0.9-0.9-1.1-1.6c0,0.4-0.3,1.8-0.5,2c-0.9-1.2-1.3-4.8-1.3-4.8s-0.1,0-0.1,0.1c0.1,0.9,0.2,2.2,0.3,3.7
				c0,0,0,0,0,0c0.1,1.8,0.3,3.8,0.5,5.5c0.4,4.2,0.8,8.5,1.4,12.7c0,0,0.1,0.7,0.2,1.1c0.1-0.4,0.2-2.1,0.1-3
				c0-0.2,0.3-0.6,0.3-1.9c0-0.5-0.6-7-0.8-9.6c0-0.3-0.1-1-0.1-1c0,0.1,0,0.2,0.1,0.3c0.2,1,0.4,1.9,0.5,2.9
				c0.1,0.6,0.2,1.2,0.3,1.8c0.3,1.9,0.5,3.8,0.5,5.7c0,1.2-0.4,1.6-0.3,1.8c0.2,1.5,0,3-0.3,3.8c-0.1,0-0.2-0.2-0.3-0.2
				c0.2,1.2,0.5,2.1,0.5,2.1c0.4-1,0.7-2,0.6-4.6c0-0.2,0.4-0.8,0.4-2.1c0-0.4-0.1-1.6-0.2-3.2c-0.2-2.8-0.4-5.5-0.7-8.3
				c0-0.1,0-0.5,0-0.5c0,0.1,0.1,0.2,0.1,0.4c0.8,3.5,1.1,7.2,1.3,10.8c0.1,1.6-0.5,2.9-0.5,3.1c0.1,0.8,0.1,0.8,0.1,1.5
				c0,0.9-0.1,1-0.1,1c0.3-0.6,1.2-2.8,0.9-9.4c0-0.2,0-0.3,0-0.5c-0.2-4.6-0.6-7.6-0.6-7.6c0.4,1.3,0.8,4.1,1.1,7.3
				c0,0,0.1-0.1,0.1-0.2c0.5-1.2,0.5-2.5,0.5-3.8c-0.2-2.4-0.4-4.4-0.4-4.4c0,0,0.1,0.2,0.1,0.2c0.1,0.3,0.3,1,0.5,2.2
				c0.2,0.9,0.3,1.7,0.4,2.6c0,0.1,0,0.2,0,0.4l0,0c0.9-1.4,0.5-4.1,0.1-7c0.4,0.9,1.1,3.5,0.9,5.4c1.4-1.3,0.6-3.9,0.1-6.8
				c0.8,1.8,1.4,3.9,1.2,5.3c1.1-1.5,0.7-3.4-0.3-7.2c0.6,1,1.4,3.4,1.5,4.9C191.7,42.3,190.9,39.4,190.2,37.1z M202.6,45.5
				c0,0,0.6-0.6,0.8-2.4c0.1,0.1,0.3,0.3,0.4,0.5c0.4-0.5,1.1-3,1.2-3.8c0.2,0.1,0,0.1,0.3,0.2c0.2-0.4,0.6-1.8,0.8-3.8
				c0.1,0,0.3,0,0.3,0.1c0.1-0.9,0.3-2.3,0.3-3.4c0-0.9,0-2.7-0.4-3.7c-0.4-1-0.5-1.6-1.1-2.5c0,0-0.2,0.1-0.3,0.2
				c-0.2-0.5-0.6-1.7-0.8-2.1c-0.6-1.1-0.8-1.8-1.4-2.2c0.3,0,0.4,0.1,0.7,0.1c-0.4-0.4-0.5-0.6-1-0.9c0.1-0.1,0.4-0.1,0.8,0
				c-0.6-0.5-0.8-1.3-2.3-1.9c0.3,0,0.5,0,0.8,0c-0.2-0.3-0.6-0.8-1.4-1c-1.5-0.3-3.6-0.3-4.6,0.8c-0.1,0.1-0.3,0.1-0.6,0.2
				c-0.2,0.1-0.2,0.1-0.3,0.1c-0.2,0.1-0.2,0.3,0.1,0.8c-0.4-0.1-0.5-0.5-0.6-0.4c-0.2,0.1-0.3,0.2-0.5,0.5
				c-0.1,0.2-0.3,0.7-0.2,0.9c0.1,0,0.4,0.2,0.5-0.2c0-0.1,0.7-0.2,0.9-0.2c0.3,0,0.6,0.1,1.1,0.1c-0.2,0.1-0.6,0.2-0.8,0.2
				c-0.2,0.1-0.2,0.3,0,0.3c0.2,0,0.3-0.1,0.5-0.1c0.1,0.1,0,0.3,0.1,0.4c1.2-0.3,1.3,1,2.6,0.8c-0.6-0.5-1.1-1.3-1.6-1.5
				c1.3,0.2,2,1.4,3.4,1.4c-0.1-0.1-0.1-0.1-0.2-0.4c0.5,0,0.8,0.4,1,0.4c-0.2,0.2-0.6,0.3-1.1,0.4c0.1,0.2,0.6,0.2,0.8,0.2
				c-0.3,0.3-0.6,0.4-1.2,0.3c-0.2,0.2-0.5,0.6-1.4,1.2c0-0.2,0-0.2,0-0.4c-0.6,0.3-1,1-1.4,1.2c0.1-0.2,0.2-0.6,0.3-0.8
				c-1.6,1.4-3.1,2.8-3.7,3.8c-0.6,1.2-0.8,2.3-0.8,4.3c0.1,1.1,0.5,4,0.6,4.6c0.1-0.1,0.2-0.1,0.3-0.1c0.4,2.2,1.5,5.3,2.1,6.3
				c0.1-0.2,0.2-0.3,0.3-0.5c0.1,0.6,0.4,1.2,0.9,1.7c0-0.4,0.2-0.6,0.2-0.8c0.1,0.4,0.1,1.7,0.8,2.5c0-0.4,0.1-0.7,0.2-1.2
				c0.1,0.4,0.2,1,0.4,1.4c0.2,0.5,0.5,1,0.8,1.1c0-1,0.1-1,0.2-1.4c0,0.1,0.4,0.5,0.6,1.8c0.8-0.6,1.1-2.5,1.1-2.5
				c0,0,0.2,0.2,0.4,0.7c0.7-0.7,0.9-1.6,1.1-2.3C202.6,44.8,202.6,45.3,202.6,45.5z M203.3,55.7c0.9,0,1.2,0,1.5-0.1
				c0-0.1,0-0.2-0.1-0.3c0-0.1,0-0.1,0-0.2c0,0,0,0,0,0c-0.3,0.1-0.9,0.3-1.7,0.1c-0.4-0.1-0.4-0.1-0.7-0.2
				c-0.3-0.1-0.7,0.4-1.1,0.7c-0.3,0.3-0.7,0.8-0.9,0.9c0,0,0,0.1,0,0.1c0.3,0.3,4.1,3.8,4.4,4c0.1,0.1,0.1,0.1,0.2,0
				c0.2-0.2,0.4-0.4,0.7-0.7c0,0-3.8-3.5-3.8-3.6c-0.1-0.1-0.1-0.1,0-0.2c0,0,0.2-0.2,0.2-0.2c0,0,0.1,0,0.2,0
				c0.1,0.1,1.2,1.2,1.2,1.2l1.6,1.4l1,0.9c0.1-0.2,0.1-0.1,0.2-0.2c0.2-0.2,0.1-0.3-0.4-0.8c-0.1-0.1-2.6-2.6-2.6-2.6
				C202.9,55.8,203,55.7,203.3,55.7z M197.5,56.5c-0.1,0.1-3.8,3.6-3.8,3.6c0.2,0.2,0.5,0.5,0.7,0.7c0.1,0.1,0.1,0.1,0.2,0
				c0.2-0.2,4-3.7,4.4-4c0,0,0-0.1,0-0.1c-0.2-0.2-0.6-0.6-0.9-0.9c-0.3-0.4-0.8-0.8-1.1-0.7c-0.3,0.1-0.3,0.1-0.7,0.2
				c-0.8,0.1-1.4,0-1.7-0.1c0,0-0.1,0-0.1,0c0,0.1,0,0.2,0,0.3c0,0.1,0,0.2,0,0.3c0.4,0.1,0.6,0.1,1.6,0.1c0.3,0,0.5,0.1,0.2,0.4
				c0,0-2.5,2.5-2.6,2.6c-0.5,0.5-0.6,0.6-0.4,0.8c0,0,0,0,0.2,0.2l1-0.9l1.6-1.4c0,0,1.2-1.1,1.2-1.2c0.1-0.1,0.1-0.1,0.2,0
				c0,0,0.2,0.2,0.2,0.2C197.5,56.4,197.5,56.5,197.5,56.5z M197.8,47.7c0,0,0-0.2-0.1-0.5c-0.1-0.2-0.3-0.3-0.4-0.5
				c-0.1-0.1-0.1-0.2-0.1-0.2c0,0.1,0,0.5,0.1,0.6c0,0.2,0.2,0.3,0.3,0.4C197.7,47.6,197.8,47.7,197.8,47.7z M197.8,54.9
				c0,0,0.3,0.3,0.3,0.3c0.1-0.4,0.2-1.7,0.2-1.8C197.9,54.2,197.8,54.8,197.8,54.9z M196.3,54.8c0.1-0.1,0.5-0.2,0.7-0.3
				c0,0,0.1,0,0.1,0l0,0c0.1-0.4,0.3-1,0.4-1.3C197.4,53.2,196.5,54.5,196.3,54.8z M199.1,56.2c0-0.5,0-1.1-0.1-1.3
				c-0.2,0.2-0.3,0.6-0.3,0.9C198.7,55.8,199.1,56.1,199.1,56.2z M199.3,52.8c0,0-0.1-0.7-0.6-0.9C198.8,52.4,199.3,52.8,199.3,52.8
				z M199.7,51.7C199.7,51.7,199.7,51.7,199.7,51.7C199.7,51.7,199.7,51.7,199.7,51.7c0,0,0.1-0.2,0.3-0.4c0.2-0.1,1.2-0.8,1.4-1.1
				c0.2-0.3,0.3-0.7,0.3-0.7s-0.2,0.3-0.6,0.6c-0.4,0.2-1.2,0.7-1.3,1c-0.1,0.1-0.1,0.2-0.1,0.3c0-0.1,0-0.2-0.1-0.2
				c-0.3-0.5-1-0.8-1.5-1.3c-0.3-0.3-0.3-0.5-0.3-0.5c0,0.4,0.1,0.6,0.2,0.8c0.1,0.2,0.5,0.5,1,0.8
				C199.6,51.4,199.7,51.7,199.7,51.7z M199.2,49.8c0-0.8-0.9-0.9-1.1-1.8C198,49.2,198.8,49.2,199.2,49.8z M199.7,53.1
				c0,0,0.1,0,0.4-0.2c0.2-0.1,0.4-0.3,0.6-0.5c0.1-0.2,0.1-0.4,0.1-0.6c0,0-0.1,0.2-0.4,0.5c-0.1,0.1-0.3,0.3-0.4,0.4
				C199.7,52.9,199.7,53.1,199.7,53.1z M200.5,53.6c0.1,0.5,0.2,1.7,0.2,2.1c0,0,0,0,0,0c0.1-0.1,0.3-0.3,0.4-0.4
				C201,55.1,200.9,54.1,200.5,53.6z M199.7,56.7c0,0,0.3-0.4,0.5-0.5c0,0,0,0,0,0c-0.1-0.6-0.2-1.5-0.5-1.8
				C199.7,54.7,199.7,55.8,199.7,56.7z M199.7,57.1c0,0.3,0,0.5,0,0.6c0,0,0.3-0.3,0.3-0.3S199.8,57.1,199.7,57.1z M199.9,58.1
				c0.5,0.6,1.2,1.3,1.7,1.8c0.3-0.3,0.5-0.5,0.5-0.5l-1.8-1.7C200.2,57.7,200.1,57.9,199.9,58.1z M202.1,60.2
				c0.4,0.4,0.8,0.8,1.2,1.2c0.2-0.2,0.4-0.4,0.5-0.6l-1.2-1.1C202.6,59.8,202.4,59.9,202.1,60.2z M202.4,54.6
				c-0.2-0.3-0.7-0.9-1.1-1.3c0.3,0.7,0.4,1.1,0.5,1.3l0,0c0,0,0,0,0.1,0c0.1,0,0.2-0.1,0.2-0.1c0.1,0,0.2,0,0.3,0.1
				C202.3,54.6,202.4,54.6,202.4,54.6z M202,47.7c-0.2,0.4-0.4,0.6-0.7,0.9c0.1-0.3,0.1-0.6,0.1-0.6c-0.1,0.3-0.5,0.7-0.7,0.9
				c-0.5,0.5-0.6,1.1-0.6,1.1s0.1-0.2,0.8-0.6C201.5,49,201.8,48.4,202,47.7z M193.5,40.4c0,0.7,0.5,1.6,1.1,1.9
				C194.2,41.3,193.9,41,193.5,40.4z M207.2,28.3c0.3,0,0.5,0,0.7-0.2c0.2-0.1,0.2-0.2,0.3-0.3c1.6-2.3,4.5-5.9,6.7-8.8
				c-4.5-4.4-10.9-4.7-12.5-4.6c-0.4,0-0.8,0.3-0.3,1c-0.4,0.2-1.7,0-2.2-0.4c-0.5,0.5-1.9,0.6-2.2,0.4c0.5-0.6,0.1-1-0.3-1
				c-1.7-0.1-8.4,0.5-12.5,4.5c2.2,3,6.9,9.1,7,9.3c0.1,0.1,0.3,0.3,0.6,0.3c0,0,0.1,0,0.1,0c0.2,0,0.5-0.2,0.7-0.4
				c0.5-0.5,0.7-0.8,1.2-1.3c0.9-0.9,1.8-1.7,1.9-1.8c0.4-0.4,0.5-0.6,0.5-0.9c0-0.3-0.3-0.5-0.5-0.7c0,0-0.1,0.1-0.1,0.1
				c-0.1-0.1-0.3-0.6-0.3-0.6l-0.1,0.2c0,0-0.3-0.8-0.9-0.8c-0.7,0.1-1.2-0.2-1.3-0.2c0,0-0.1,0.2-0.1,0.5c0,0,0,0,0,0
				c-0.5-0.4-0.7-1.6,0.3-2.3c0.6-0.4,0.7-0.4,1.2-0.7c0.2-0.1,0.4-0.3,0.4-0.3c0.3-0.4,1-0.6,1.3-0.7c0.5-0.1,1.5-0.3,2.6-0.2
				c0.6,0,1.2,0.2,1.6,0.3c0.3,0.1,1.2,0.8,1.8,1.5c0.3,0.4,0.9,1.7,1.2,2.5c0.7,1.7,0.6,1.5,1.1,2.6c0.5,1.3,0.9,2,1.4,2.7
				C206.6,28.1,206.8,28.2,207.2,28.3z M215.2,18.5c0.2-0.2,0.3-0.4,0.5-0.6c-2-1.8-5.1-3.6-8.4-4.4c-2.2-0.5-4-0.5-5.2-0.5
				c-0.9,0-1.5,0.4-1.5,0.9c-0.6-0.1-0.7-0.8-0.8-1c-0.1,0.3-0.3,0.9-0.8,1c0-0.6-0.6-0.9-1.5-0.9c-1.1,0-2.9,0-5.2,0.5
				c-3.4,0.7-6.3,2.4-8.4,4.2c0.1,0.2,0.3,0.4,0.5,0.6c1.8-1.7,4.3-3.1,6.9-3.9c2.2-0.6,4.8-0.9,6-0.8c1.1,0.1,1.2,0.7,1.1,1
				c0.5,0,1.2-0.4,1.4-0.7c0.1,0.2,0.8,0.7,1.4,0.7c-0.1-0.3,0-1,1.1-1c1.2-0.1,3.9,0.2,6,0.8C210.8,15.3,213.4,16.9,215.2,18.5z
				 M216.4,16.3c0.2,0.8,0.5,1.7,1.1,2.2c0.1,0.1,0.2,0.1,0.3,0.2l0,0c0-1.5,0.5-2.3,0.9-3.2c0,0,0,0,0,0c0,0,0,0,0,0
				c0.6,0.1,1.3,0.3,2.8,0c-1.4-1-1.1-2.1-2.2-3.2c-0.1-0.1-0.2-0.3-0.4-0.4c-0.4-0.3-0.7-0.4-0.9-0.4c-0.3,0-0.4,0.1-0.5,0.2
				c-0.1,0.2-1.6,1.8-2.6,2.9C215.9,14.6,216.2,15.4,216.4,16.3z M217.4,11c-1-1-2.6-2.1-4.5-2.9c-5-2.2-11.3-2.2-13.1-2.2
				c0,0,0,0,0,0c0,0,0,0,0,0c-1.8,0-8.1,0-13.1,2.2c-1.9,0.8-3.5,1.9-4.5,2.9c0,0,2.3,2.5,2.8,3.2c0.3,0.4,0.4,0.7,0.2,1.2
				c3.5-2.3,7.4-3.5,14.4-3.5l0.3,0c6.9,0.1,11,1.2,14.4,3.5c-0.2-0.5-0.1-0.8,0.2-1.2C215.2,13.5,217.4,11,217.4,11z M181.9,11.8
				C181.9,11.7,181.9,11.7,181.9,11.8c-0.1-0.2-0.5-0.5-1.4,0.2c-1.5,1.3-1,2.6-2.6,3.6c0.6,0.1,1,0.1,1.4,0.1c0.3,0,0.5,0,0.7,0
				c0.3,0,0.5-0.1,0.7-0.1c0,0,0,0,0,0c0.4,0.9,0.9,1.7,0.9,3.2c1.9-1,1.1-4.2,2.8-4.1C183.4,13.5,182,11.9,181.9,11.8z M183.1,18.2
				c1.4,1.8,2.4,3.2,2.6,3.5c0.5,0.7,2.1,2.6,2.1,2.4c0-0.2-1-1.5-1.6-2.4c-0.9-1.2-1.9-2.5-2.8-3.8
				C183.2,17.9,183.1,18.1,183.1,18.2z M189.8,30.5c0,1.3,0.3,2.3,0.7,3.9C190.6,32.7,190.2,31,189.8,30.5z M188.9,29
				c-0.1,0.6-0.1,1.4,0.1,2c0.1,0.4,0.3,0.8,0.4,1.1C189.4,30.9,189.1,29.6,188.9,29z M192.4,40.6c0.2-0.7,0.5-5.4-1.4-7.4
				C191.5,35,192.1,37.1,192.4,40.6z M187.3,66.7c1.3,0.5,4.9,0.6,6.6,0.3c2.2-0.3,3.8-0.9,5.2-1.9c-0.4-0.3-0.8-0.7-1.3-1.2
				c-0.7,0.6-1.4,1.1-1.8,1.2c-2.6,1-6,1.3-6,1.3s4.4-1,6-1.8c0.3-0.2,0.8-0.6,1.4-1.1c-0.6-0.6-1.1-1.1-1.6-1.5
				c-0.3,0.3-0.5,0.4-0.8,0.6c-0.6,0.4-1.4,0.7-2.1,1C189.9,65,187.8,66.3,187.3,66.7z M197.9,66.7c0.1,0.4,0.4,1,0.5,1.2
				c0,0,0.8-0.7,1.1-2.2c-0.2,0.1-0.4,0.3-0.6,0.5C198.5,66.4,198.1,66.6,197.9,66.7z M214.1,21.5c0.2-0.3,1.1-1.5,2.4-3.2
				c-0.1-0.1-0.2-0.2-0.3-0.3c-0.9,1.2-1.8,2.4-2.6,3.5c-0.6,0.9-1.6,2.3-1.6,2.4C212,24.1,213.6,22.2,214.1,21.5z M221.4,13.1
				c-0.1,0.2-0.5,0.6-0.5,0.6c0.4,0.7,0.8,1.5,1.9,2C222.5,14.9,222,14,221.4,13.1z M220.4,12.5c0,0.1,0.2,0.3,0.2,0.4
				c2.6-3.4,5-6.6,5-6.6s-1,0.7-2.4,1.4c0.1,0.8-0.3,1.7-0.5,2C222.5,9.7,221.6,10.9,220.4,12.5z M179.2,11.5
				c0.1,0.2,0.3,0.3,0.4,0.5c1.9-2.5,4.5-4.2,7.6-5.4c-0.2-0.4-0.6-1.2,0.3-2.1c0,0,0,0,0,0c1.3,0.2,1.7,1,1.8,1.4
				c2.4-0.7,5.3-1.1,8.5-1.2c0.1-2.2,1.7-2.7,1.7-2.7s0-0.4,0.4-0.6c0,0,0,0,0,0c0.3,0.1,0.4,0.6,0.4,0.6s1.6,0.5,1.7,2.7
				c3.2,0.1,6.1,0.5,8.5,1.2c0.1-0.4,0.4-1.2,1.8-1.4c0,0,0,0,0,0c0.9,0.9,0.6,1.7,0.3,2.1c3.1,1.2,5.8,3,7.7,5.5
				c0.1-0.2,0.3-0.4,0.4-0.5c-1.8-2.2-4.3-4-7-5.1c0.3-0.9,0-1.6-0.5-2.1c0-0.4-0.2-0.7-0.4-0.8c0,0,0,0,0,0c-0.3,0-0.6,0.1-0.9,0.4
				c-0.8,0.1-1.5,0.5-2,1.3c-2-0.5-4.3-0.8-7.1-1c-0.1-1.3-0.8-2.1-1.8-2.6c-0.2-0.5-0.6-0.7-0.9-0.8c-0.3,0.1-0.7,0.3-0.9,0.8
				c-0.9,0.5-1.7,1.3-1.8,2.6c-2.9,0.2-5.1,0.5-7.1,1c-0.4-0.8-1.2-1.2-2-1.3c-0.3-0.3-0.6-0.4-0.9-0.4h0c-0.2,0.1-0.4,0.4-0.4,0.8
				c-0.5,0.5-0.8,1.3-0.5,2.1C183.4,7.5,181,9.3,179.2,11.5z M179,12.8c0.1-0.1,0.2-0.3,0.2-0.3c-1.2-1.5-2-2.6-2-2.7
				c-0.2-0.2-0.7-1.2-0.5-2c-1.4-0.7-2.4-1.4-2.4-1.4S176.5,9.4,179,12.8z M176.6,15.8c0.2-0.1,1-0.6,1.4-1.2
				c0.2-0.3,0.4-0.6,0.6-0.9c0,0-0.5-0.6-0.5-0.6C177.5,13.9,177,14.9,176.6,15.8z M172.5,34.7c0.5,0.4,2.8,2.4,6.5,4.5
				c0.1-2.2,0.1-10.1,4.9-18.6c-0.5-0.7-0.8-1-1.3-1.7c-0.4,0.4-0.9,0.7-1.6,0.9c0-1.7-0.3-2.6-0.8-3.6c-0.7,0-1.8,0-3.6-0.3
				C174.2,21,173,26.9,172.5,34.7z M194.1,70.5L194.1,70.5c0.2-0.4,0.8-1.9,1.1-2.6c0-0.1-0.1-0.3-0.1-0.4c-0.4,0.1-0.8,0.1-1.3,0.2
				c-0.3,0-4.5,0.7-7.5-0.8c0.4-0.3,1.1-0.8,2-1.4c0-0.1,0-0.1,0-0.2c-0.7,0.4-1.4,0.5-2,0.5c0-0.5,0.1-1.1,0.3-1.8
				c-0.7,0.2-1.2,0-1.2,0s0.5-1.5,1.5-3.3c0.9-1.7,2.2-3.3,3.3-4.7c0.1-0.5,0.5-1,0.6-1.1c0,0,0.2-0.2,0.2-0.2
				c-0.1-0.1-0.2-0.2-0.4-0.3c-0.1,0.1-0.2,0.2-0.3,0.2c-0.4,0.2-0.6,0.2-0.8,0.2c-0.4,0-0.6-0.1-0.7-0.3l0,0
				c-0.3-0.1-0.5-0.2-0.6-0.5c0,0,0-0.1,0-0.1c-0.2,0.1-0.4,0.1-0.6-0.1c-0.3-0.2,0.1-1.4,1.4-2.6c0.9-0.9,1.7-1.3,2.5-1.7
				c0.6-0.3,1,0.3,0.7,0.6c-0.4,0.4-0.6,1.2-0.3,2c0.4-0.1,0.5-0.2,0.6-0.2c0.1-0.1,0.3-0.1,0.5-0.4c0,0,0-0.1,0.1-0.1l-0.5,0.1
				c0.3-0.7-0.1-2.3,0.1-3.4c-0.1,0.1-0.3,0.2-0.4,0.2c-0.2-1-0.2-2.5-0.1-3.3c0-0.2-0.3-0.5-0.7-0.9c-0.3,0.8-0.8,1.7-1.7,2.8
				c-0.7,0.8-1.9,1.6-2.5,4.3c0,0,0,0,0,0c-0.1,0.4-0.3,0.8-0.4,1.2c-0.4,0.9-0.4,1.3-0.4,1.3l0,0c0,1.7,0,5.2-0.4,7.2
				c-0.4,1.7-1,2.6-1,2.6l-0.1-0.1c-0.2,0.6-0.4,1.6-1.1,2.4c0,0-0.6-1.1-1.6-9.9c-1.2-9.6-1.7-19.7-1.7-19.7l0,0
				c-0.1-1.8,0.3-3.9,0.8-5.4c0.9-2.4,2.6-4.8,3.6-5.8c0.6-0.6,1.3-0.7,2-0.6c-0.2-0.3-0.4-0.5-0.4-0.5c-0.7-0.9-1.4-1.8-2.1-2.7
				c-4.7,8.3-4.6,18.2-4.6,18.3l0,1.1l-0.8-0.4c-3.7-2.1-5.3-3.4-6.5-4.4c-0.1,1-0.2,4.4-0.2,4.4c0,0.1,0,0.8,0,2.1
				c0,4,0.7,13.7,3.9,20.4c0.4,0.8,1.7,3.1,3.8,5.1c1.7,1.6,3.6,2.7,5.7,3.3c0.1,0,0.4,0.1,0.5,0.2C188.8,72,191.5,71.9,194.1,70.5z
				 M193.9,73.3c0.5-0.4,1.3-0.7,2.2-0.3c0.1-1.2,0.2-2.9,0.5-4.4c-0.4,0.4-0.7,0.6-0.7,0.6c-0.1,0-0.1-0.1-0.2-0.2
				C195,70.7,193.9,73.3,193.9,73.3z M203.3,74.1c0.1-1.2-0.4-4.5-0.7-6.4c0,0-0.1-0.1-0.1-0.2c-0.1-0.1-0.1-0.2-0.2-0.3
				c-0.1,0.4-0.2,0.8-0.4,1.2c-0.2,0.5-0.5,0.9-0.6,0.9c-0.1,0-0.9-0.6-1.5-1.9c-0.6,1.2-1.4,1.8-1.5,1.8c-0.1,0-0.4-0.5-0.6-0.9
				c-0.1-0.2-0.2-0.4-0.2-0.6c-0.3,2-0.7,5.1-0.7,6.3c-1.8-1.2-2.9,0-2.6,0.8c0,0.1,0.1,0.1,0.1,0.2c0.2,0.3,0.5,0.4,0.9,0.5
				c0.6,0,1.4,0.1,2.3,0.5c0.8,0.4,1.7,1,2.6,2.1c0.9-1.1,1.8-1.7,2.6-2.1c0.9-0.4,1.7-0.5,2.3-0.5c0.4,0,0.7-0.2,0.9-0.5
				c0-0.1,0.1-0.1,0.1-0.2C206.2,74.1,205.1,72.9,203.3,74.1z M206.1,73.3c0,0-1.1-2.9-1.8-4.6c-0.2,0.2-0.3,0.4-0.4,0.4
				c0,0-0.3-0.1-0.6-0.4c0.3,1.4,0.5,3.1,0.5,4.3C204.8,72.6,205.6,72.9,206.1,73.3z M227.2,40.3c0-1.3-0.1-3.5-0.1-4.5
				c-1.3,1-2.4,2-6.3,4.3l-1,0.6l0-0.7c0-0.1,0.3-10-4.5-18.5c-0.3,0.4-1.3,1.7-2.4,3c0.6-0.1,1.2,0.1,1.8,0.6c1,1,2.6,3.3,3.6,5.8
				c0.5,1.5,0.9,3.6,0.8,5.4l0,0c0,0-0.6,10.1-1.7,19.7c-1,8.8-1.6,9.9-1.6,9.9c-0.7-0.8-0.9-1.8-1.1-2.4l-0.1,0.1
				c0,0-0.6-0.9-1-2.6c-0.4-2-0.5-5.5-0.4-7.2l0,0c0,0,0-0.5-0.4-1.3c-0.2-0.4-0.3-0.8-0.4-1.2c0,0,0,0,0,0
				c-0.6-2.7-1.9-3.5-2.5-4.3c-0.8-1-1.4-2.1-1.8-2.9c0,0,0,0-0.1,0.1c-0.4,0.4-0.8,0.9-0.8,1.1c0.2,1.6,0.3,2.7,0.1,3.5
				c-0.1-0.1-0.2-0.2-0.3-0.3c0.1,1-0.4,2.2-0.1,3.2l-0.6-0.1c0,0.1,0,0.1,0.1,0.2c0.1,0.1,0.2,0.2,0.3,0.3c0,0,0.2,0.1,0.2,0.1
				c0.1,0,0.2,0.1,0.6,0.2c0.4-0.8,0.1-1.5-0.3-2c-0.3-0.4,0.1-0.9,0.7-0.6c0.8,0.3,1.6,0.8,2.5,1.7c1.3,1.2,1.7,2.4,1.4,2.6
				c-0.2,0.2-0.4,0.1-0.6,0.1c0,0,0,0.1,0,0.1c-0.1,0.2-0.3,0.4-0.6,0.5l0,0c-0.1,0.2-0.4,0.3-0.7,0.3c-0.3,0-0.7-0.2-0.8-0.2
				c-0.1,0-0.2-0.1-0.3-0.2c-0.1,0.1-0.2,0.1-0.2,0.2c1,1.4,3,3.6,4.4,6.1c1,1.8,1.5,3.3,1.5,3.3s-0.5,0.2-1.2,0
				c0.2,0.7,0.4,1.3,0.3,1.8c-0.5,0-1.2,0-2-0.5c0,0.1,0,0.2,0.1,0.3c0.6,0.4,1.3,1,1.6,1.2c-3.1,1.4-7.5,0.8-7.6,0.8
				c-0.2,0-0.4-0.1-0.6-0.1c0,0.1-0.1,0.2-0.1,0.3c0.3,0.7,1,2.4,1.1,2.7c1.9,0.9,3.7,1.5,6.5,1c0,0,0.5,0,1.7-0.4
				c1.2-0.4,3.5-1.7,5.2-3.4c2.2-2,3.5-4.2,3.9-5c3.4-6.6,3.9-16.4,3.9-20.4C227.2,41,227.2,40.3,227.2,40.3z"/>
		</g>
		<g>
			<g>
				<path class="st0" d="M3.5,46.8h3.4c1.4,0,2.4,0.5,2.9,1.7c0.4,0.9,0.5,3.1,0.5,3.5c0,2.3-0.2,3.7-0.7,4.4
					c-0.6,0.9-1.7,1.4-3.6,1.4H3.5V46.8z M4.9,56.6h1.3c1.9,0,2.7-0.7,2.7-3.3v-2.2c0-2.2-0.7-3-2.1-3H4.9V56.6z"/>
				<path class="st0" d="M12.8,57.8v-11h5.7V48h-4.3v3.5h4v1.2h-4v3.8h4.3v1.2H12.8z"/>
				<path class="st0" d="M20.6,57.8v-11h3.3c1.5,0,3.1,0.5,3.1,3.1c0,2.5-1.9,3-3.1,3H22v4.8H20.6z M22,51.7h1.5
					c0.6,0,1.9-0.2,1.9-1.9c0-1.7-1.2-1.8-1.5-1.8H22V51.7z"/>
				<path class="st0" d="M30.6,46.8h1.8l3.6,11h-1.6l-0.8-2.6h-4.2l-0.8,2.6h-1.4L30.6,46.8z M31.4,48.1L31.4,48.1l-1.7,5.9h3.5
					L31.4,48.1z"/>
				<path class="st0" d="M38.7,52.7v5h-1.4v-11h3.8c1.9,0,2.6,1.4,2.6,2.7c0,1.3-0.7,2.3-2,2.5v0c1.3,0.2,1.7,0.6,1.8,2.8
					c0,0.5,0.2,2.2,0.4,2.9h-1.5c-0.4-0.8-0.3-2.2-0.4-3.6c-0.1-1.3-1.2-1.4-1.7-1.4H38.7z M38.7,51.5h2.1c1,0,1.5-0.9,1.5-1.8
					c0-0.8-0.4-1.7-1.5-1.7h-2.1V51.5z"/>
				<path class="st0" d="M52,46.8V48h-2.9v9.8h-1.4V48h-2.9v-1.2H52z"/>
				<path class="st0" d="M54.7,57.8h-1.3v-11h2.3l2.8,9.2h0l2.8-9.2h2.3v11h-1.4V48h0l-3.1,9.8h-1.3l-3-9.8h0V57.8z"/>
				<path class="st0" d="M66.1,57.8v-11h5.7V48h-4.3v3.5h4v1.2h-4v3.8h4.3v1.2H66.1z"/>
				<path class="st0" d="M81.3,46.8v11h-1.9L75,48.3h0v9.5h-1.2v-11h2l4.3,9.4h0v-9.4H81.3z"/>
				<path class="st0" d="M90,46.8V48h-2.9v9.8h-1.4V48h-2.9v-1.2H90z"/>
				<path class="st0" d="M94.7,53.8v-3.6c0-2.2,1.1-3.6,3.5-3.6c2.3,0,3.5,1.4,3.5,3.6v3.6c0,3-1.1,4.2-3.5,4.2
					C95.9,58,94.7,56.8,94.7,53.8z M100.2,53.8v-3.7c0-2.3-1.6-2.4-2-2.4s-2,0.1-2,2.4v3.7c0,2.4,0.7,3,2,3S100.2,56.2,100.2,53.8z"
					/>
				<path class="st0" d="M104,57.8v-11h5.4V48h-4v3.5h3.8v1.2h-3.8v5H104z"/>
				<path class="st0" d="M114.3,57.8v-11h1.4v4.7h3.8v-4.7h1.4v11h-1.4v-5h-3.8v5H114.3z"/>
				<path class="st0" d="M123.5,57.8v-11h5.7V48h-4.3v3.5h4v1.2h-4v3.8h4.3v1.2H123.5z"/>
				<path class="st0" d="M133.6,46.8h1.8l3.6,11h-1.6l-0.8-2.6h-4.2l-0.8,2.6h-1.4L133.6,46.8z M134.4,48.1L134.4,48.1l-1.7,5.9h3.5
					L134.4,48.1z"/>
				<path class="st0" d="M140.4,57.8v-11h1.4v9.8h4v1.2H140.4z"/>
				<path class="st0" d="M152.4,46.8V48h-2.9v9.8h-1.4V48h-2.9v-1.2H152.4z"/>
				<path class="st0" d="M153.9,57.8v-11h1.4v4.7h3.8v-4.7h1.4v11h-1.4v-5h-3.8v5H153.9z"/>
			</g>
			<g>
				<g>
					<path class="st0" d="M8.9,25c0.2,0,0.4-0.1,0.6-0.3c0.2-0.2,0.3-0.4,0.3-0.6c0-0.2-0.1-0.4-0.3-0.6c-0.2-0.2-0.4-0.3-0.6-0.3
						c-0.2,0-0.4,0.1-0.6,0.3C8.1,23.7,8,23.9,8,24.1c0,0.2,0.1,0.4,0.3,0.6C8.4,24.9,8.6,25,8.9,25z"/>
					<path class="st0" d="M6,25c0.2,0,0.4-0.1,0.6-0.3c0.2-0.2,0.3-0.4,0.3-0.6c0-0.2-0.1-0.4-0.3-0.6c-0.2-0.2-0.4-0.3-0.6-0.3
						c-0.2,0-0.4,0.1-0.6,0.3s-0.3,0.4-0.3,0.6c0,0.2,0.1,0.4,0.3,0.6S5.7,25,6,25z"/>
					<path class="st0" d="M86.2,22v12.2H85h-4.6h0h-4.6h-4.6c0,0,0,0,0,0v0H70v-7.4l-0.7,0c-1.2,0.1-2.3,0.2-3.3,0.5s-1.8,0.6-2.5,1
						c-0.7,0.4-1.3,0.9-1.8,1.4s-0.9,1-1.2,1.5v-2.5H59v5.5h-1.5h-4.6h-4.6h-4.6H39h-0.4c-0.2,0-0.3,0-0.5-0.1
						c-0.1,0-0.2-0.1-0.3-0.2c-0.1-0.1-0.2-0.1-0.2-0.2c-0.1-0.1-0.1-0.3-0.2-0.5c-0.1-0.2-0.1-0.6-0.2-1c-0.1-0.4-0.1-0.9-0.2-1.6
						c-0.2-2.6-1.4-4-3.7-4c-0.5,0-1.1,0.1-1.5,0.3c-0.5,0.2-0.9,0.4-1.2,0.6l0.8,1.1c0.6-0.4,1.3-0.6,1.9-0.6c0.3,0,0.5,0,0.8,0.1
						c0.3,0.1,0.5,0.2,0.7,0.3c0.2,0.2,0.4,0.4,0.6,0.8c0.2,0.4,0.3,0.9,0.3,1.5c0.1,0.9,0.1,1.6,0.2,2.1c0.1,0.6,0.2,1,0.4,1.4
						h-6.7h0h-4.6h-4.6h-4.6H11h-0.8c-0.2,0-0.3-0.1-0.3-0.4v-7.6c-0.4,0.1-1,0.3-1.7,0.6C7.4,27.2,6.7,27.6,6,28
						c-0.7,0.5-1.3,1.1-1.8,1.8c-0.5,0.7-0.7,1.5-0.7,2.5c0,0.4,0.1,0.7,0.2,1.1c0.1,0.4,0.3,0.7,0.6,1.1c0.3,0.3,0.7,0.6,1.3,0.9
						c0.5,0.2,1.2,0.4,2.1,0.4l0.1-1.3c-1-0.1-1.7-0.3-2.2-0.6c-0.5-0.3-0.7-0.8-0.7-1.6c0-0.5,0.1-1,0.4-1.5
						c0.3-0.4,0.6-0.8,0.9-1.1c0.4-0.3,0.8-0.6,1.2-0.8c0.4-0.2,0.8-0.4,1.1-0.6l0,5.6c0,0.5,0.1,1,0.4,1.3c0.3,0.3,0.6,0.4,1.1,0.4
						h1h4.6h4.6h4.6h4.6h0H39h4.6h4.6h4.6h4.6h13.6v0c0,0,0,0,0,0h4.6h4.6h0H85h2.5V22H86.2z M68.6,34.2h-8.2
						c0.1-0.4,0.3-0.9,0.6-1.5c0.3-0.6,0.7-1.3,1.4-1.9c0.6-0.6,1.4-1.2,2.4-1.7c1-0.5,2.3-0.8,3.8-1V34.2z"/>
				</g>
				<path class="st0" d="M89.6,22.1h1.3v13.5h-1.3V22.1z"/>
				<path class="st0" d="M103.1,35.6h-1.4c-0.4,0-0.9-0.1-1.5-0.2c-0.6-0.1-1.1-0.3-1.6-0.6c-0.5-0.3-0.9-0.6-1.2-1.1
					c-0.3-0.5-0.5-1-0.5-1.7c0-0.6,0.1-1.2,0.4-1.7c0.2-0.5,0.5-1,0.9-1.4c0.4-0.4,0.8-0.8,1.3-1.1c0.5-0.3,0.9-0.6,1.4-0.8
					c0.5-0.2,0.9-0.4,1.3-0.5c0.4-0.1,0.7-0.2,1-0.3V35.6z M101.7,34.2v-6c-0.3,0.1-0.7,0.3-1.1,0.5c-0.4,0.2-0.8,0.5-1.2,0.8
					c-0.4,0.3-0.7,0.7-0.9,1.1c-0.3,0.4-0.4,0.9-0.4,1.4c0,0.4,0.1,0.7,0.3,1c0.2,0.3,0.5,0.5,0.8,0.7c0.3,0.2,0.7,0.3,1.1,0.4
					c0.4,0.1,0.8,0.1,1.1,0.1H101.7z M100.3,24.1c0,0.2-0.1,0.4-0.3,0.6c-0.2,0.2-0.4,0.3-0.6,0.3s-0.4-0.1-0.6-0.3
					c-0.2-0.2-0.3-0.4-0.3-0.6c0-0.2,0.1-0.4,0.3-0.6c0.2-0.2,0.4-0.3,0.6-0.3s0.4,0.1,0.6,0.3C100.3,23.7,100.3,23.9,100.3,24.1z
					 M103.2,24.1c0,0.2-0.1,0.4-0.3,0.6c-0.2,0.2-0.4,0.3-0.6,0.3c-0.2,0-0.4-0.1-0.6-0.3c-0.2-0.2-0.3-0.4-0.3-0.6
					c0-0.2,0.1-0.4,0.3-0.6c0.2-0.2,0.4-0.3,0.6-0.3c0.2,0,0.4,0.1,0.6,0.3C103.2,23.7,103.2,23.9,103.2,24.1z"/>
				<g>
					<path class="st0" d="M146.8,25.5c-0.3-0.1-0.4-0.4-0.4-0.7c0-0.2,0.1-0.4,0.2-0.5c0.1-0.1,0.3-0.1,0.5-0.1
						c0.3,0,0.7,0.1,1.1,0.3l0.3-0.7c-0.5-0.2-0.9-0.3-1.4-0.3c-0.3,0-0.7,0.1-1,0.3s-0.4,0.5-0.4,1c0,0.2,0,0.4,0.1,0.6
						c0.1,0.2,0.1,0.3,0.2,0.3H145v0.7h3.4v-0.7h-0.6C147.4,25.8,147.1,25.7,146.8,25.5z"/>
					<path class="st0" d="M146.7,34.2h-2.6h-4.6h-4.6h0H131h-4.6h-4.6h-4.6h-4.6h-4.6h0h-1.2v-6.6h-1.3v8.5c0,0.5,0,0.9-0.1,1.3
						c0,0.4-0.1,0.8-0.3,1.1c-0.1,0.3-0.4,0.6-0.7,0.8c-0.3,0.2-0.7,0.3-1.2,0.3v1.3c0.8,0,1.4-0.2,1.9-0.4c0.5-0.3,0.8-0.7,1.1-1.2
						c0.2-0.5,0.4-1,0.5-1.6c0.1-0.6,0.1-1.2,0.1-1.7v-0.6h1.2h0h4.6h4.6h4.6h4.6h4.6h3.8h0h4.6h4.6h3.9v-7.9h-1.3V34.2z"/>
				</g>
				<path class="st0" d="M150.1,22.1h1.3v13.5h-1.3V22.1z"/>
				<path class="st0" d="M153.2,27.9c0.3-0.3,0.8-0.6,1.3-0.8c0.5-0.3,1.2-0.4,1.9-0.4c0.7,0,1.3,0.1,1.8,0.4
					c0.5,0.3,0.9,0.7,1.3,1.1c0.3,0.5,0.6,1,0.8,1.6c0.2,0.6,0.3,1.2,0.3,1.8c0,0.5,0,0.9-0.1,1.3c-0.1,0.4-0.2,0.8-0.3,1.2
					c-0.1,0.3-0.2,0.6-0.3,0.9c-0.1,0.2-0.2,0.4-0.3,0.6h-6.4v-1.3h5.5c0.1-0.3,0.2-0.6,0.3-1c0.1-0.4,0.2-1,0.2-1.6
					c0-0.5-0.1-0.9-0.2-1.4c-0.1-0.4-0.3-0.8-0.5-1.1c-0.2-0.3-0.5-0.6-0.9-0.8c-0.4-0.2-0.7-0.3-1.2-0.3c-0.4,0-0.7,0.1-1.1,0.2
					c-0.4,0.1-0.8,0.4-1.3,0.7L153.2,27.9z"/>
			</g>
		</g>
	</g>
</g>
</svg>
